<mxfile host="Electron" agent="Mozilla/5.0 (Macintosh; Intel Mac OS X 10_15_7) AppleWebKit/537.36 (KHTML, like Gecko) draw.io/24.7.17 Chrome/128.0.6613.36 Electron/32.0.1 Safari/537.36" version="24.7.17">
  <diagram id="eVboDeVbvbOf3NUNw_bD" name="Page-1">
    <mxGraphModel dx="2585" dy="1225" grid="1" gridSize="10" guides="1" tooltips="1" connect="1" arrows="1" fold="1" page="1" pageScale="1" pageWidth="850" pageHeight="1100" math="0" shadow="0">
      <root>
        <mxCell id="0" />
        <mxCell id="1" parent="0" />
        <mxCell id="T7HbSHbdoNsgTyJeluN7-26" value="User Data" style="shape=table;startSize=30;container=1;collapsible=1;childLayout=tableLayout;fixedRows=1;rowLines=0;fontStyle=1;align=center;resizeLast=1;html=1;swimlaneFillColor=#FFFFFF;" parent="1" vertex="1">
          <mxGeometry x="-680" y="220" width="210" height="360" as="geometry">
            <mxRectangle x="-710" y="415" width="90" height="30" as="alternateBounds" />
          </mxGeometry>
        </mxCell>
        <mxCell id="T7HbSHbdoNsgTyJeluN7-115" value="" style="shape=tableRow;horizontal=0;startSize=0;swimlaneHead=0;swimlaneBody=0;fillColor=none;collapsible=0;dropTarget=0;points=[[0,0.5],[1,0.5]];portConstraint=eastwest;top=0;left=0;right=0;bottom=0;" parent="T7HbSHbdoNsgTyJeluN7-26" vertex="1">
          <mxGeometry y="30" width="210" height="30" as="geometry" />
        </mxCell>
        <mxCell id="T7HbSHbdoNsgTyJeluN7-116" value="PK" style="shape=partialRectangle;connectable=0;fillColor=#A9C4EB;top=1;left=1;bottom=1;right=0;fontStyle=1;overflow=hidden;whiteSpace=wrap;html=1;strokeColor=#000000;strokeWidth=2;" parent="T7HbSHbdoNsgTyJeluN7-115" vertex="1">
          <mxGeometry width="30" height="30" as="geometry">
            <mxRectangle width="30" height="30" as="alternateBounds" />
          </mxGeometry>
        </mxCell>
        <mxCell id="T7HbSHbdoNsgTyJeluN7-117" value="users_id" style="shape=partialRectangle;connectable=0;fillColor=#dae8fc;top=1;left=0;bottom=1;right=1;align=left;spacingLeft=6;fontStyle=1;overflow=hidden;whiteSpace=wrap;html=1;strokeColor=#000000;strokeWidth=2;" parent="T7HbSHbdoNsgTyJeluN7-115" vertex="1">
          <mxGeometry x="30" width="180" height="30" as="geometry">
            <mxRectangle width="180" height="30" as="alternateBounds" />
          </mxGeometry>
        </mxCell>
        <mxCell id="T7HbSHbdoNsgTyJeluN7-30" value="" style="shape=tableRow;horizontal=0;startSize=0;swimlaneHead=0;swimlaneBody=0;fillColor=none;collapsible=0;dropTarget=0;points=[[0,0.5],[1,0.5]];portConstraint=eastwest;top=0;left=0;right=0;bottom=0;" parent="T7HbSHbdoNsgTyJeluN7-26" vertex="1">
          <mxGeometry y="60" width="210" height="30" as="geometry" />
        </mxCell>
        <mxCell id="T7HbSHbdoNsgTyJeluN7-31" value="" style="shape=partialRectangle;connectable=0;fillColor=none;top=0;left=0;bottom=0;right=0;editable=1;overflow=hidden;whiteSpace=wrap;html=1;" parent="T7HbSHbdoNsgTyJeluN7-30" vertex="1">
          <mxGeometry width="30" height="30" as="geometry">
            <mxRectangle width="30" height="30" as="alternateBounds" />
          </mxGeometry>
        </mxCell>
        <mxCell id="T7HbSHbdoNsgTyJeluN7-32" value="username" style="shape=partialRectangle;connectable=0;fillColor=none;top=0;left=0;bottom=1;right=0;align=left;spacingLeft=6;overflow=hidden;whiteSpace=wrap;html=1;flipH=0;dashed=1;" parent="T7HbSHbdoNsgTyJeluN7-30" vertex="1">
          <mxGeometry x="30" width="180" height="30" as="geometry">
            <mxRectangle width="180" height="30" as="alternateBounds" />
          </mxGeometry>
        </mxCell>
        <mxCell id="T7HbSHbdoNsgTyJeluN7-33" value="" style="shape=tableRow;horizontal=0;startSize=0;swimlaneHead=0;swimlaneBody=0;fillColor=none;collapsible=0;dropTarget=0;points=[[0,0.5],[1,0.5]];portConstraint=eastwest;top=0;left=0;right=0;bottom=0;" parent="T7HbSHbdoNsgTyJeluN7-26" vertex="1">
          <mxGeometry y="90" width="210" height="30" as="geometry" />
        </mxCell>
        <mxCell id="T7HbSHbdoNsgTyJeluN7-34" value="" style="shape=partialRectangle;connectable=0;fillColor=none;top=0;left=0;bottom=0;right=0;editable=1;overflow=hidden;whiteSpace=wrap;html=1;" parent="T7HbSHbdoNsgTyJeluN7-33" vertex="1">
          <mxGeometry width="30" height="30" as="geometry">
            <mxRectangle width="30" height="30" as="alternateBounds" />
          </mxGeometry>
        </mxCell>
        <mxCell id="T7HbSHbdoNsgTyJeluN7-35" value="email" style="shape=partialRectangle;connectable=0;fillColor=none;top=0;left=0;bottom=1;right=0;align=left;spacingLeft=6;overflow=hidden;whiteSpace=wrap;html=1;dashed=1;" parent="T7HbSHbdoNsgTyJeluN7-33" vertex="1">
          <mxGeometry x="30" width="180" height="30" as="geometry">
            <mxRectangle width="180" height="30" as="alternateBounds" />
          </mxGeometry>
        </mxCell>
        <mxCell id="T7HbSHbdoNsgTyJeluN7-36" value="" style="shape=tableRow;horizontal=0;startSize=0;swimlaneHead=0;swimlaneBody=0;fillColor=none;collapsible=0;dropTarget=0;points=[[0,0.5],[1,0.5]];portConstraint=eastwest;top=0;left=0;right=0;bottom=0;" parent="T7HbSHbdoNsgTyJeluN7-26" vertex="1">
          <mxGeometry y="120" width="210" height="30" as="geometry" />
        </mxCell>
        <mxCell id="T7HbSHbdoNsgTyJeluN7-37" value="" style="shape=partialRectangle;connectable=0;fillColor=none;top=0;left=0;bottom=0;right=0;editable=1;overflow=hidden;whiteSpace=wrap;html=1;" parent="T7HbSHbdoNsgTyJeluN7-36" vertex="1">
          <mxGeometry width="30" height="30" as="geometry">
            <mxRectangle width="30" height="30" as="alternateBounds" />
          </mxGeometry>
        </mxCell>
        <mxCell id="T7HbSHbdoNsgTyJeluN7-38" value="password" style="shape=partialRectangle;connectable=0;fillColor=none;top=0;left=0;bottom=1;right=0;align=left;spacingLeft=6;overflow=hidden;whiteSpace=wrap;html=1;" parent="T7HbSHbdoNsgTyJeluN7-36" vertex="1">
          <mxGeometry x="30" width="180" height="30" as="geometry">
            <mxRectangle width="180" height="30" as="alternateBounds" />
          </mxGeometry>
        </mxCell>
        <mxCell id="T7HbSHbdoNsgTyJeluN7-41" value="" style="shape=tableRow;horizontal=0;startSize=0;swimlaneHead=0;swimlaneBody=0;fillColor=none;collapsible=0;dropTarget=0;points=[[0,0.5],[1,0.5]];portConstraint=eastwest;top=0;left=0;right=0;bottom=0;" parent="T7HbSHbdoNsgTyJeluN7-26" vertex="1">
          <mxGeometry y="150" width="210" height="30" as="geometry" />
        </mxCell>
        <mxCell id="T7HbSHbdoNsgTyJeluN7-42" value="" style="shape=partialRectangle;connectable=0;fillColor=none;top=0;left=0;bottom=0;right=0;editable=1;overflow=hidden;whiteSpace=wrap;html=1;" parent="T7HbSHbdoNsgTyJeluN7-41" vertex="1">
          <mxGeometry width="30" height="30" as="geometry">
            <mxRectangle width="30" height="30" as="alternateBounds" />
          </mxGeometry>
        </mxCell>
        <mxCell id="T7HbSHbdoNsgTyJeluN7-43" value="first_name" style="shape=partialRectangle;connectable=0;fillColor=none;top=0;left=0;bottom=1;right=0;align=left;spacingLeft=6;overflow=hidden;whiteSpace=wrap;html=1;flipH=0;dashed=1;" parent="T7HbSHbdoNsgTyJeluN7-41" vertex="1">
          <mxGeometry x="30" width="180" height="30" as="geometry">
            <mxRectangle width="180" height="30" as="alternateBounds" />
          </mxGeometry>
        </mxCell>
        <mxCell id="T7HbSHbdoNsgTyJeluN7-166" style="shape=tableRow;horizontal=0;startSize=0;swimlaneHead=0;swimlaneBody=0;fillColor=none;collapsible=0;dropTarget=0;points=[[0,0.5],[1,0.5]];portConstraint=eastwest;top=0;left=0;right=0;bottom=0;" parent="T7HbSHbdoNsgTyJeluN7-26" vertex="1">
          <mxGeometry y="180" width="210" height="30" as="geometry" />
        </mxCell>
        <mxCell id="T7HbSHbdoNsgTyJeluN7-167" style="shape=partialRectangle;connectable=0;fillColor=none;top=0;left=0;bottom=0;right=0;editable=1;overflow=hidden;whiteSpace=wrap;html=1;" parent="T7HbSHbdoNsgTyJeluN7-166" vertex="1">
          <mxGeometry width="30" height="30" as="geometry">
            <mxRectangle width="30" height="30" as="alternateBounds" />
          </mxGeometry>
        </mxCell>
        <mxCell id="T7HbSHbdoNsgTyJeluN7-168" value="last_name" style="shape=partialRectangle;connectable=0;fillColor=none;top=0;left=0;bottom=1;right=0;align=left;spacingLeft=6;overflow=hidden;whiteSpace=wrap;html=1;dashed=1;" parent="T7HbSHbdoNsgTyJeluN7-166" vertex="1">
          <mxGeometry x="30" width="180" height="30" as="geometry">
            <mxRectangle width="180" height="30" as="alternateBounds" />
          </mxGeometry>
        </mxCell>
        <mxCell id="T7HbSHbdoNsgTyJeluN7-44" value="" style="shape=tableRow;horizontal=0;startSize=0;swimlaneHead=0;swimlaneBody=0;fillColor=none;collapsible=0;dropTarget=0;points=[[0,0.5],[1,0.5]];portConstraint=eastwest;top=0;left=0;right=0;bottom=0;" parent="T7HbSHbdoNsgTyJeluN7-26" vertex="1">
          <mxGeometry y="210" width="210" height="30" as="geometry" />
        </mxCell>
        <mxCell id="T7HbSHbdoNsgTyJeluN7-45" value="" style="shape=partialRectangle;connectable=0;fillColor=none;top=0;left=0;bottom=0;right=0;editable=1;overflow=hidden;whiteSpace=wrap;html=1;" parent="T7HbSHbdoNsgTyJeluN7-44" vertex="1">
          <mxGeometry width="30" height="30" as="geometry">
            <mxRectangle width="30" height="30" as="alternateBounds" />
          </mxGeometry>
        </mxCell>
        <mxCell id="T7HbSHbdoNsgTyJeluN7-46" value="phone_no" style="shape=partialRectangle;connectable=0;fillColor=none;top=0;left=0;bottom=1;right=0;align=left;spacingLeft=6;overflow=hidden;whiteSpace=wrap;html=1;dashed=1;" parent="T7HbSHbdoNsgTyJeluN7-44" vertex="1">
          <mxGeometry x="30" width="180" height="30" as="geometry">
            <mxRectangle width="180" height="30" as="alternateBounds" />
          </mxGeometry>
        </mxCell>
        <mxCell id="T7HbSHbdoNsgTyJeluN7-47" value="" style="shape=tableRow;horizontal=0;startSize=0;swimlaneHead=0;swimlaneBody=0;fillColor=none;collapsible=0;dropTarget=0;points=[[0,0.5],[1,0.5]];portConstraint=eastwest;top=0;left=0;right=0;bottom=0;" parent="T7HbSHbdoNsgTyJeluN7-26" vertex="1">
          <mxGeometry y="240" width="210" height="30" as="geometry" />
        </mxCell>
        <mxCell id="T7HbSHbdoNsgTyJeluN7-48" value="" style="shape=partialRectangle;connectable=0;fillColor=none;top=0;left=0;bottom=0;right=0;editable=1;overflow=hidden;whiteSpace=wrap;html=1;" parent="T7HbSHbdoNsgTyJeluN7-47" vertex="1">
          <mxGeometry width="30" height="30" as="geometry">
            <mxRectangle width="30" height="30" as="alternateBounds" />
          </mxGeometry>
        </mxCell>
        <mxCell id="T7HbSHbdoNsgTyJeluN7-49" value="date_of_birth" style="shape=partialRectangle;connectable=0;fillColor=none;top=0;left=0;bottom=1;right=0;align=left;spacingLeft=6;overflow=hidden;whiteSpace=wrap;html=1;dashed=1;" parent="T7HbSHbdoNsgTyJeluN7-47" vertex="1">
          <mxGeometry x="30" width="180" height="30" as="geometry">
            <mxRectangle width="180" height="30" as="alternateBounds" />
          </mxGeometry>
        </mxCell>
        <mxCell id="T7HbSHbdoNsgTyJeluN7-50" value="" style="shape=tableRow;horizontal=0;startSize=0;swimlaneHead=0;swimlaneBody=0;fillColor=none;collapsible=0;dropTarget=0;points=[[0,0.5],[1,0.5]];portConstraint=eastwest;top=0;left=0;right=0;bottom=0;" parent="T7HbSHbdoNsgTyJeluN7-26" vertex="1">
          <mxGeometry y="270" width="210" height="30" as="geometry" />
        </mxCell>
        <mxCell id="T7HbSHbdoNsgTyJeluN7-51" value="" style="shape=partialRectangle;connectable=0;fillColor=none;top=0;left=0;bottom=0;right=0;editable=1;overflow=hidden;whiteSpace=wrap;html=1;" parent="T7HbSHbdoNsgTyJeluN7-50" vertex="1">
          <mxGeometry width="30" height="30" as="geometry">
            <mxRectangle width="30" height="30" as="alternateBounds" />
          </mxGeometry>
        </mxCell>
        <mxCell id="T7HbSHbdoNsgTyJeluN7-52" value="city" style="shape=partialRectangle;connectable=0;fillColor=none;top=0;left=0;bottom=1;right=0;align=left;spacingLeft=6;overflow=hidden;whiteSpace=wrap;html=1;dashed=1;" parent="T7HbSHbdoNsgTyJeluN7-50" vertex="1">
          <mxGeometry x="30" width="180" height="30" as="geometry">
            <mxRectangle width="180" height="30" as="alternateBounds" />
          </mxGeometry>
        </mxCell>
        <mxCell id="T7HbSHbdoNsgTyJeluN7-81" value="" style="shape=tableRow;horizontal=0;startSize=0;swimlaneHead=0;swimlaneBody=0;fillColor=none;collapsible=0;dropTarget=0;points=[[0,0.5],[1,0.5]];portConstraint=eastwest;top=0;left=0;right=0;bottom=0;" parent="T7HbSHbdoNsgTyJeluN7-26" vertex="1">
          <mxGeometry y="300" width="210" height="30" as="geometry" />
        </mxCell>
        <mxCell id="T7HbSHbdoNsgTyJeluN7-82" value="" style="shape=partialRectangle;connectable=0;fillColor=none;top=0;left=0;bottom=0;right=0;editable=1;overflow=hidden;whiteSpace=wrap;html=1;" parent="T7HbSHbdoNsgTyJeluN7-81" vertex="1">
          <mxGeometry width="30" height="30" as="geometry">
            <mxRectangle width="30" height="30" as="alternateBounds" />
          </mxGeometry>
        </mxCell>
        <mxCell id="T7HbSHbdoNsgTyJeluN7-83" value="country" style="shape=partialRectangle;connectable=0;fillColor=none;top=0;left=0;bottom=1;right=0;align=left;spacingLeft=6;overflow=hidden;whiteSpace=wrap;html=1;" parent="T7HbSHbdoNsgTyJeluN7-81" vertex="1">
          <mxGeometry x="30" width="180" height="30" as="geometry">
            <mxRectangle width="180" height="30" as="alternateBounds" />
          </mxGeometry>
        </mxCell>
        <mxCell id="T7HbSHbdoNsgTyJeluN7-154" value="" style="shape=tableRow;horizontal=0;startSize=0;swimlaneHead=0;swimlaneBody=0;fillColor=none;collapsible=0;dropTarget=0;points=[[0,0.5],[1,0.5]];portConstraint=eastwest;top=0;left=0;right=0;bottom=0;" parent="T7HbSHbdoNsgTyJeluN7-26" vertex="1">
          <mxGeometry y="330" width="210" height="30" as="geometry" />
        </mxCell>
        <mxCell id="T7HbSHbdoNsgTyJeluN7-155" value="" style="shape=partialRectangle;connectable=0;fillColor=#d5e8d4;top=1;left=1;bottom=1;right=0;editable=1;overflow=hidden;whiteSpace=wrap;html=1;strokeColor=#000000;" parent="T7HbSHbdoNsgTyJeluN7-154" vertex="1">
          <mxGeometry width="30" height="30" as="geometry">
            <mxRectangle width="30" height="30" as="alternateBounds" />
          </mxGeometry>
        </mxCell>
        <mxCell id="T7HbSHbdoNsgTyJeluN7-156" value="subscription_type" style="shape=partialRectangle;connectable=0;fillColor=#d5e8d4;top=1;left=0;bottom=1;right=1;align=left;spacingLeft=6;overflow=hidden;whiteSpace=wrap;html=1;strokeColor=#000000;" parent="T7HbSHbdoNsgTyJeluN7-154" vertex="1">
          <mxGeometry x="30" width="180" height="30" as="geometry">
            <mxRectangle width="180" height="30" as="alternateBounds" />
          </mxGeometry>
        </mxCell>
        <mxCell id="T7HbSHbdoNsgTyJeluN7-84" value="Destination Data" style="shape=table;startSize=30;container=1;collapsible=1;childLayout=tableLayout;fixedRows=1;rowLines=0;fontStyle=1;align=center;resizeLast=1;html=1;resizeWidth=0;resizeHeight=0;swimlaneLine=1;" parent="1" vertex="1">
          <mxGeometry x="-370" y="245" width="210" height="300" as="geometry">
            <mxRectangle x="-320" y="90" width="130" height="30" as="alternateBounds" />
          </mxGeometry>
        </mxCell>
        <mxCell id="T7HbSHbdoNsgTyJeluN7-85" value="" style="shape=tableRow;horizontal=0;startSize=0;swimlaneHead=0;swimlaneBody=0;fillColor=#dae8fc;collapsible=0;dropTarget=0;points=[[0,0.5],[1,0.5]];portConstraint=eastwest;top=0;left=0;right=0;bottom=0;strokeColor=#000000;strokeWidth=1;" parent="T7HbSHbdoNsgTyJeluN7-84" vertex="1">
          <mxGeometry y="30" width="210" height="30" as="geometry" />
        </mxCell>
        <mxCell id="T7HbSHbdoNsgTyJeluN7-86" value="PK" style="shape=partialRectangle;connectable=0;fillColor=#A9C4EB;top=1;left=1;bottom=1;right=0;fontStyle=1;overflow=hidden;whiteSpace=wrap;html=1;strokeColor=#000000;strokeWidth=2;" parent="T7HbSHbdoNsgTyJeluN7-85" vertex="1">
          <mxGeometry width="30" height="30" as="geometry">
            <mxRectangle width="30" height="30" as="alternateBounds" />
          </mxGeometry>
        </mxCell>
        <mxCell id="T7HbSHbdoNsgTyJeluN7-87" value="destination_id" style="shape=partialRectangle;connectable=0;fillColor=#dae8fc;top=1;left=0;bottom=1;right=1;align=left;spacingLeft=6;fontStyle=1;overflow=hidden;whiteSpace=wrap;html=1;strokeColor=#000000;strokeWidth=2;" parent="T7HbSHbdoNsgTyJeluN7-85" vertex="1">
          <mxGeometry x="30" width="180" height="30" as="geometry">
            <mxRectangle width="180" height="30" as="alternateBounds" />
          </mxGeometry>
        </mxCell>
        <mxCell id="T7HbSHbdoNsgTyJeluN7-91" value="" style="shape=tableRow;horizontal=0;startSize=0;swimlaneHead=0;swimlaneBody=0;fillColor=none;collapsible=0;dropTarget=0;points=[[0,0.5],[1,0.5]];portConstraint=eastwest;top=0;left=0;right=0;bottom=0;" parent="T7HbSHbdoNsgTyJeluN7-84" vertex="1">
          <mxGeometry y="60" width="210" height="30" as="geometry" />
        </mxCell>
        <mxCell id="T7HbSHbdoNsgTyJeluN7-92" value="" style="shape=partialRectangle;connectable=0;fillColor=none;top=0;left=0;bottom=0;right=0;editable=1;overflow=hidden;whiteSpace=wrap;html=1;" parent="T7HbSHbdoNsgTyJeluN7-91" vertex="1">
          <mxGeometry width="30" height="30" as="geometry">
            <mxRectangle width="30" height="30" as="alternateBounds" />
          </mxGeometry>
        </mxCell>
        <mxCell id="T7HbSHbdoNsgTyJeluN7-93" value="name" style="shape=partialRectangle;connectable=0;fillColor=none;top=0;left=0;bottom=1;right=0;align=left;spacingLeft=6;overflow=hidden;whiteSpace=wrap;html=1;dashed=1;" parent="T7HbSHbdoNsgTyJeluN7-91" vertex="1">
          <mxGeometry x="30" width="180" height="30" as="geometry">
            <mxRectangle width="180" height="30" as="alternateBounds" />
          </mxGeometry>
        </mxCell>
        <mxCell id="T7HbSHbdoNsgTyJeluN7-94" value="" style="shape=tableRow;horizontal=0;startSize=0;swimlaneHead=0;swimlaneBody=0;fillColor=none;collapsible=0;dropTarget=0;points=[[0,0.5],[1,0.5]];portConstraint=eastwest;top=0;left=0;right=0;bottom=0;" parent="T7HbSHbdoNsgTyJeluN7-84" vertex="1">
          <mxGeometry y="90" width="210" height="30" as="geometry" />
        </mxCell>
        <mxCell id="T7HbSHbdoNsgTyJeluN7-95" value="" style="shape=partialRectangle;connectable=0;fillColor=none;top=0;left=0;bottom=0;right=0;editable=1;overflow=hidden;whiteSpace=wrap;html=1;" parent="T7HbSHbdoNsgTyJeluN7-94" vertex="1">
          <mxGeometry width="30" height="30" as="geometry">
            <mxRectangle width="30" height="30" as="alternateBounds" />
          </mxGeometry>
        </mxCell>
        <mxCell id="T7HbSHbdoNsgTyJeluN7-96" value="location" style="shape=partialRectangle;connectable=0;fillColor=none;top=0;left=0;bottom=1;right=0;align=left;spacingLeft=6;overflow=hidden;whiteSpace=wrap;html=1;dashed=1;" parent="T7HbSHbdoNsgTyJeluN7-94" vertex="1">
          <mxGeometry x="30" width="180" height="30" as="geometry">
            <mxRectangle width="180" height="30" as="alternateBounds" />
          </mxGeometry>
        </mxCell>
        <mxCell id="T7HbSHbdoNsgTyJeluN7-97" value="" style="shape=tableRow;horizontal=0;startSize=0;swimlaneHead=0;swimlaneBody=0;fillColor=none;collapsible=0;dropTarget=0;points=[[0,0.5],[1,0.5]];portConstraint=eastwest;top=0;left=0;right=0;bottom=0;" parent="T7HbSHbdoNsgTyJeluN7-84" vertex="1">
          <mxGeometry y="120" width="210" height="30" as="geometry" />
        </mxCell>
        <mxCell id="T7HbSHbdoNsgTyJeluN7-98" value="" style="shape=partialRectangle;connectable=0;fillColor=none;top=0;left=0;bottom=0;right=0;editable=1;overflow=hidden;whiteSpace=wrap;html=1;" parent="T7HbSHbdoNsgTyJeluN7-97" vertex="1">
          <mxGeometry width="30" height="30" as="geometry">
            <mxRectangle width="30" height="30" as="alternateBounds" />
          </mxGeometry>
        </mxCell>
        <mxCell id="T7HbSHbdoNsgTyJeluN7-99" value="state&amp;nbsp;" style="shape=partialRectangle;connectable=0;fillColor=none;top=0;left=0;bottom=1;right=0;align=left;spacingLeft=6;overflow=hidden;whiteSpace=wrap;html=1;flipH=0;dashed=1;" parent="T7HbSHbdoNsgTyJeluN7-97" vertex="1">
          <mxGeometry x="30" width="180" height="30" as="geometry">
            <mxRectangle width="180" height="30" as="alternateBounds" />
          </mxGeometry>
        </mxCell>
        <mxCell id="T7HbSHbdoNsgTyJeluN7-100" value="" style="shape=tableRow;horizontal=0;startSize=0;swimlaneHead=0;swimlaneBody=0;fillColor=none;collapsible=0;dropTarget=0;points=[[0,0.5],[1,0.5]];portConstraint=eastwest;top=0;left=0;right=0;bottom=0;" parent="T7HbSHbdoNsgTyJeluN7-84" vertex="1">
          <mxGeometry y="150" width="210" height="30" as="geometry" />
        </mxCell>
        <mxCell id="T7HbSHbdoNsgTyJeluN7-101" value="" style="shape=partialRectangle;connectable=0;fillColor=none;top=0;left=0;bottom=0;right=0;editable=1;overflow=hidden;whiteSpace=wrap;html=1;" parent="T7HbSHbdoNsgTyJeluN7-100" vertex="1">
          <mxGeometry width="30" height="30" as="geometry">
            <mxRectangle width="30" height="30" as="alternateBounds" />
          </mxGeometry>
        </mxCell>
        <mxCell id="T7HbSHbdoNsgTyJeluN7-102" value="description" style="shape=partialRectangle;connectable=0;fillColor=none;top=0;left=0;bottom=1;right=0;align=left;spacingLeft=6;overflow=hidden;whiteSpace=wrap;html=1;dashed=1;" parent="T7HbSHbdoNsgTyJeluN7-100" vertex="1">
          <mxGeometry x="30" width="180" height="30" as="geometry">
            <mxRectangle width="180" height="30" as="alternateBounds" />
          </mxGeometry>
        </mxCell>
        <mxCell id="T7HbSHbdoNsgTyJeluN7-103" value="" style="shape=tableRow;horizontal=0;startSize=0;swimlaneHead=0;swimlaneBody=0;fillColor=none;collapsible=0;dropTarget=0;points=[[0,0.5],[1,0.5]];portConstraint=eastwest;top=0;left=0;right=0;bottom=0;" parent="T7HbSHbdoNsgTyJeluN7-84" vertex="1">
          <mxGeometry y="180" width="210" height="30" as="geometry" />
        </mxCell>
        <mxCell id="T7HbSHbdoNsgTyJeluN7-104" value="" style="shape=partialRectangle;connectable=0;fillColor=none;top=0;left=0;bottom=0;right=0;editable=1;overflow=hidden;whiteSpace=wrap;html=1;" parent="T7HbSHbdoNsgTyJeluN7-103" vertex="1">
          <mxGeometry width="30" height="30" as="geometry">
            <mxRectangle width="30" height="30" as="alternateBounds" />
          </mxGeometry>
        </mxCell>
        <mxCell id="T7HbSHbdoNsgTyJeluN7-105" value="coordinates" style="shape=partialRectangle;connectable=0;fillColor=none;top=0;left=0;bottom=1;right=0;align=left;spacingLeft=6;overflow=hidden;whiteSpace=wrap;html=1;dashed=1;" parent="T7HbSHbdoNsgTyJeluN7-103" vertex="1">
          <mxGeometry x="30" width="180" height="30" as="geometry">
            <mxRectangle width="180" height="30" as="alternateBounds" />
          </mxGeometry>
        </mxCell>
        <mxCell id="T7HbSHbdoNsgTyJeluN7-106" value="" style="shape=tableRow;horizontal=0;startSize=0;swimlaneHead=0;swimlaneBody=0;fillColor=none;collapsible=0;dropTarget=0;points=[[0,0.5],[1,0.5]];portConstraint=eastwest;top=0;left=0;right=0;bottom=0;" parent="T7HbSHbdoNsgTyJeluN7-84" vertex="1">
          <mxGeometry y="210" width="210" height="30" as="geometry" />
        </mxCell>
        <mxCell id="T7HbSHbdoNsgTyJeluN7-107" value="" style="shape=partialRectangle;connectable=0;fillColor=none;top=0;left=0;bottom=0;right=0;editable=1;overflow=hidden;whiteSpace=wrap;html=1;" parent="T7HbSHbdoNsgTyJeluN7-106" vertex="1">
          <mxGeometry width="30" height="30" as="geometry">
            <mxRectangle width="30" height="30" as="alternateBounds" />
          </mxGeometry>
        </mxCell>
        <mxCell id="T7HbSHbdoNsgTyJeluN7-108" value="ratings_review" style="shape=partialRectangle;connectable=0;fillColor=none;top=0;left=0;bottom=1;right=0;align=left;spacingLeft=6;overflow=hidden;whiteSpace=wrap;html=1;dashed=1;" parent="T7HbSHbdoNsgTyJeluN7-106" vertex="1">
          <mxGeometry x="30" width="180" height="30" as="geometry">
            <mxRectangle width="180" height="30" as="alternateBounds" />
          </mxGeometry>
        </mxCell>
        <mxCell id="T7HbSHbdoNsgTyJeluN7-172" style="shape=tableRow;horizontal=0;startSize=0;swimlaneHead=0;swimlaneBody=0;fillColor=none;collapsible=0;dropTarget=0;points=[[0,0.5],[1,0.5]];portConstraint=eastwest;top=0;left=0;right=0;bottom=0;" parent="T7HbSHbdoNsgTyJeluN7-84" vertex="1">
          <mxGeometry y="240" width="210" height="30" as="geometry" />
        </mxCell>
        <mxCell id="T7HbSHbdoNsgTyJeluN7-173" value="&lt;hr&gt;" style="shape=partialRectangle;connectable=0;fillColor=none;top=0;left=0;bottom=0;right=0;editable=1;overflow=hidden;whiteSpace=wrap;html=1;dashed=1;" parent="T7HbSHbdoNsgTyJeluN7-172" vertex="1">
          <mxGeometry width="30" height="30" as="geometry">
            <mxRectangle width="30" height="30" as="alternateBounds" />
          </mxGeometry>
        </mxCell>
        <mxCell id="T7HbSHbdoNsgTyJeluN7-174" value="price" style="shape=partialRectangle;connectable=0;fillColor=none;top=0;left=0;bottom=1;right=0;align=left;spacingLeft=6;overflow=hidden;whiteSpace=wrap;html=1;" parent="T7HbSHbdoNsgTyJeluN7-172" vertex="1">
          <mxGeometry x="30" width="180" height="30" as="geometry">
            <mxRectangle width="180" height="30" as="alternateBounds" />
          </mxGeometry>
        </mxCell>
        <mxCell id="T7HbSHbdoNsgTyJeluN7-109" value="" style="shape=tableRow;horizontal=0;startSize=0;swimlaneHead=0;swimlaneBody=0;fillColor=none;collapsible=0;dropTarget=0;points=[[0,0.5],[1,0.5]];portConstraint=eastwest;top=0;left=0;right=0;bottom=0;" parent="T7HbSHbdoNsgTyJeluN7-84" vertex="1">
          <mxGeometry y="270" width="210" height="30" as="geometry" />
        </mxCell>
        <mxCell id="T7HbSHbdoNsgTyJeluN7-110" value="" style="shape=partialRectangle;connectable=0;fillColor=#d5e8d4;top=1;left=1;bottom=1;right=0;editable=1;overflow=hidden;whiteSpace=wrap;html=1;strokeColor=#000000;" parent="T7HbSHbdoNsgTyJeluN7-109" vertex="1">
          <mxGeometry width="30" height="30" as="geometry">
            <mxRectangle width="30" height="30" as="alternateBounds" />
          </mxGeometry>
        </mxCell>
        <mxCell id="T7HbSHbdoNsgTyJeluN7-111" value="liked_by" style="shape=partialRectangle;connectable=0;fillColor=#d5e8d4;top=1;left=0;bottom=1;right=1;align=left;spacingLeft=6;overflow=hidden;whiteSpace=wrap;html=1;shadow=0;strokeColor=#000000;" parent="T7HbSHbdoNsgTyJeluN7-109" vertex="1">
          <mxGeometry x="30" width="180" height="30" as="geometry">
            <mxRectangle width="180" height="30" as="alternateBounds" />
          </mxGeometry>
        </mxCell>
        <mxCell id="T7HbSHbdoNsgTyJeluN7-175" value="Payment Data" style="shape=table;startSize=30;container=1;collapsible=1;childLayout=tableLayout;fixedRows=1;rowLines=0;fontStyle=1;align=center;resizeLast=1;html=1;" parent="1" vertex="1">
          <mxGeometry x="-680" y="680" width="210" height="270" as="geometry">
            <mxRectangle x="-770" y="340" width="120" height="30" as="alternateBounds" />
          </mxGeometry>
        </mxCell>
        <mxCell id="T7HbSHbdoNsgTyJeluN7-176" value="" style="shape=tableRow;horizontal=0;startSize=0;swimlaneHead=0;swimlaneBody=0;fillColor=none;collapsible=0;dropTarget=0;points=[[0,0.5],[1,0.5]];portConstraint=eastwest;top=0;left=0;right=0;bottom=0;swimlaneLine=0;" parent="T7HbSHbdoNsgTyJeluN7-175" vertex="1">
          <mxGeometry y="30" width="210" height="30" as="geometry" />
        </mxCell>
        <mxCell id="T7HbSHbdoNsgTyJeluN7-177" value="PK" style="shape=partialRectangle;connectable=0;fillColor=#A9C4EB;top=1;left=1;bottom=1;right=0;fontStyle=1;overflow=hidden;whiteSpace=wrap;html=1;strokeColor=#000000;gradientDirection=radial;strokeWidth=2;" parent="T7HbSHbdoNsgTyJeluN7-176" vertex="1">
          <mxGeometry width="30" height="30" as="geometry">
            <mxRectangle width="30" height="30" as="alternateBounds" />
          </mxGeometry>
        </mxCell>
        <mxCell id="T7HbSHbdoNsgTyJeluN7-178" value="payment_id" style="shape=partialRectangle;connectable=0;fillColor=#dae8fc;top=1;left=0;bottom=1;right=1;align=left;spacingLeft=6;fontStyle=1;overflow=hidden;whiteSpace=wrap;html=1;strokeWidth=2;strokeColor=#000000;" parent="T7HbSHbdoNsgTyJeluN7-176" vertex="1">
          <mxGeometry x="30" width="180" height="30" as="geometry">
            <mxRectangle width="180" height="30" as="alternateBounds" />
          </mxGeometry>
        </mxCell>
        <mxCell id="T7HbSHbdoNsgTyJeluN7-218" style="shape=tableRow;horizontal=0;startSize=0;swimlaneHead=0;swimlaneBody=0;fillColor=none;collapsible=0;dropTarget=0;points=[[0,0.5],[1,0.5]];portConstraint=eastwest;top=0;left=0;right=0;bottom=1;" parent="T7HbSHbdoNsgTyJeluN7-175" vertex="1">
          <mxGeometry y="60" width="210" height="30" as="geometry" />
        </mxCell>
        <mxCell id="T7HbSHbdoNsgTyJeluN7-219" value="FK" style="shape=partialRectangle;connectable=0;fillColor=#F19C99;top=1;left=1;bottom=1;right=0;fontStyle=1;overflow=hidden;whiteSpace=wrap;html=1;strokeColor=#000000;strokeWidth=2;" parent="T7HbSHbdoNsgTyJeluN7-218" vertex="1">
          <mxGeometry width="30" height="30" as="geometry">
            <mxRectangle width="30" height="30" as="alternateBounds" />
          </mxGeometry>
        </mxCell>
        <mxCell id="T7HbSHbdoNsgTyJeluN7-220" value="users_id" style="shape=partialRectangle;connectable=0;fillColor=#f8cecc;top=1;left=0;bottom=1;right=1;align=left;spacingLeft=6;fontStyle=1;overflow=hidden;whiteSpace=wrap;html=1;strokeColor=#000000;strokeWidth=2;" parent="T7HbSHbdoNsgTyJeluN7-218" vertex="1">
          <mxGeometry x="30" width="180" height="30" as="geometry">
            <mxRectangle width="180" height="30" as="alternateBounds" />
          </mxGeometry>
        </mxCell>
        <mxCell id="T7HbSHbdoNsgTyJeluN7-215" style="shape=tableRow;horizontal=0;startSize=0;swimlaneHead=0;swimlaneBody=0;fillColor=none;collapsible=0;dropTarget=0;points=[[0,0.5],[1,0.5]];portConstraint=eastwest;top=0;left=0;right=0;bottom=1;" parent="T7HbSHbdoNsgTyJeluN7-175" vertex="1">
          <mxGeometry y="90" width="210" height="30" as="geometry" />
        </mxCell>
        <mxCell id="T7HbSHbdoNsgTyJeluN7-216" value="FK" style="shape=partialRectangle;connectable=0;fillColor=#F19C99;top=1;left=1;bottom=1;right=0;fontStyle=1;overflow=hidden;whiteSpace=wrap;html=1;strokeColor=#000000;strokeWidth=2;" parent="T7HbSHbdoNsgTyJeluN7-215" vertex="1">
          <mxGeometry width="30" height="30" as="geometry">
            <mxRectangle width="30" height="30" as="alternateBounds" />
          </mxGeometry>
        </mxCell>
        <mxCell id="T7HbSHbdoNsgTyJeluN7-217" value="destination_id" style="shape=partialRectangle;connectable=0;fillColor=#f8cecc;top=1;left=0;bottom=1;right=1;align=left;spacingLeft=6;fontStyle=1;overflow=hidden;whiteSpace=wrap;html=1;strokeColor=#000000;strokeWidth=2;" parent="T7HbSHbdoNsgTyJeluN7-215" vertex="1">
          <mxGeometry x="30" width="180" height="30" as="geometry">
            <mxRectangle width="180" height="30" as="alternateBounds" />
          </mxGeometry>
        </mxCell>
        <mxCell id="T7HbSHbdoNsgTyJeluN7-179" value="" style="shape=tableRow;horizontal=0;startSize=0;swimlaneHead=0;swimlaneBody=0;fillColor=none;collapsible=0;dropTarget=0;points=[[0,0.5],[1,0.5]];portConstraint=eastwest;top=0;left=0;right=0;bottom=0;" parent="T7HbSHbdoNsgTyJeluN7-175" vertex="1">
          <mxGeometry y="120" width="210" height="30" as="geometry" />
        </mxCell>
        <mxCell id="T7HbSHbdoNsgTyJeluN7-180" value="" style="shape=partialRectangle;connectable=0;fillColor=none;top=0;left=0;bottom=0;right=0;editable=1;overflow=hidden;whiteSpace=wrap;html=1;" parent="T7HbSHbdoNsgTyJeluN7-179" vertex="1">
          <mxGeometry width="30" height="30" as="geometry">
            <mxRectangle width="30" height="30" as="alternateBounds" />
          </mxGeometry>
        </mxCell>
        <mxCell id="T7HbSHbdoNsgTyJeluN7-181" value="amount" style="shape=partialRectangle;connectable=0;fillColor=none;top=0;left=0;bottom=1;right=0;align=left;spacingLeft=6;overflow=hidden;whiteSpace=wrap;html=1;flipH=0;dashed=1;" parent="T7HbSHbdoNsgTyJeluN7-179" vertex="1">
          <mxGeometry x="30" width="180" height="30" as="geometry">
            <mxRectangle width="180" height="30" as="alternateBounds" />
          </mxGeometry>
        </mxCell>
        <mxCell id="T7HbSHbdoNsgTyJeluN7-182" value="" style="shape=tableRow;horizontal=0;startSize=0;swimlaneHead=0;swimlaneBody=0;fillColor=none;collapsible=0;dropTarget=0;points=[[0,0.5],[1,0.5]];portConstraint=eastwest;top=0;left=0;right=0;bottom=0;" parent="T7HbSHbdoNsgTyJeluN7-175" vertex="1">
          <mxGeometry y="150" width="210" height="30" as="geometry" />
        </mxCell>
        <mxCell id="T7HbSHbdoNsgTyJeluN7-183" value="" style="shape=partialRectangle;connectable=0;fillColor=none;top=0;left=0;bottom=0;right=0;editable=1;overflow=hidden;whiteSpace=wrap;html=1;" parent="T7HbSHbdoNsgTyJeluN7-182" vertex="1">
          <mxGeometry width="30" height="30" as="geometry">
            <mxRectangle width="30" height="30" as="alternateBounds" />
          </mxGeometry>
        </mxCell>
        <mxCell id="T7HbSHbdoNsgTyJeluN7-184" value="payment_method" style="shape=partialRectangle;connectable=0;fillColor=none;top=0;left=0;bottom=1;right=0;align=left;spacingLeft=6;overflow=hidden;whiteSpace=wrap;html=1;dashed=1;" parent="T7HbSHbdoNsgTyJeluN7-182" vertex="1">
          <mxGeometry x="30" width="180" height="30" as="geometry">
            <mxRectangle width="180" height="30" as="alternateBounds" />
          </mxGeometry>
        </mxCell>
        <mxCell id="T7HbSHbdoNsgTyJeluN7-185" value="" style="shape=tableRow;horizontal=0;startSize=0;swimlaneHead=0;swimlaneBody=0;fillColor=none;collapsible=0;dropTarget=0;points=[[0,0.5],[1,0.5]];portConstraint=eastwest;top=0;left=0;right=0;bottom=0;" parent="T7HbSHbdoNsgTyJeluN7-175" vertex="1">
          <mxGeometry y="180" width="210" height="30" as="geometry" />
        </mxCell>
        <mxCell id="T7HbSHbdoNsgTyJeluN7-186" value="" style="shape=partialRectangle;connectable=0;fillColor=none;top=0;left=0;bottom=0;right=0;editable=1;overflow=hidden;whiteSpace=wrap;html=1;" parent="T7HbSHbdoNsgTyJeluN7-185" vertex="1">
          <mxGeometry width="30" height="30" as="geometry">
            <mxRectangle width="30" height="30" as="alternateBounds" />
          </mxGeometry>
        </mxCell>
        <mxCell id="T7HbSHbdoNsgTyJeluN7-187" value="payment_status" style="shape=partialRectangle;connectable=0;fillColor=none;top=0;left=0;bottom=1;right=0;align=left;spacingLeft=6;overflow=hidden;whiteSpace=wrap;html=1;dashed=1;" parent="T7HbSHbdoNsgTyJeluN7-185" vertex="1">
          <mxGeometry x="30" width="180" height="30" as="geometry">
            <mxRectangle width="180" height="30" as="alternateBounds" />
          </mxGeometry>
        </mxCell>
        <mxCell id="T7HbSHbdoNsgTyJeluN7-188" value="" style="shape=tableRow;horizontal=0;startSize=0;swimlaneHead=0;swimlaneBody=0;fillColor=none;collapsible=0;dropTarget=0;points=[[0,0.5],[1,0.5]];portConstraint=eastwest;top=0;left=0;right=0;bottom=0;" parent="T7HbSHbdoNsgTyJeluN7-175" vertex="1">
          <mxGeometry y="210" width="210" height="30" as="geometry" />
        </mxCell>
        <mxCell id="T7HbSHbdoNsgTyJeluN7-189" value="" style="shape=partialRectangle;connectable=0;fillColor=none;top=0;left=0;bottom=0;right=0;editable=1;overflow=hidden;whiteSpace=wrap;html=1;" parent="T7HbSHbdoNsgTyJeluN7-188" vertex="1">
          <mxGeometry width="30" height="30" as="geometry">
            <mxRectangle width="30" height="30" as="alternateBounds" />
          </mxGeometry>
        </mxCell>
        <mxCell id="T7HbSHbdoNsgTyJeluN7-190" value="payment_date" style="shape=partialRectangle;connectable=0;fillColor=none;top=0;left=0;bottom=1;right=0;align=left;spacingLeft=6;overflow=hidden;whiteSpace=wrap;html=1;flipH=0;" parent="T7HbSHbdoNsgTyJeluN7-188" vertex="1">
          <mxGeometry x="30" width="180" height="30" as="geometry">
            <mxRectangle width="180" height="30" as="alternateBounds" />
          </mxGeometry>
        </mxCell>
        <mxCell id="T7HbSHbdoNsgTyJeluN7-191" style="shape=tableRow;horizontal=0;startSize=0;swimlaneHead=0;swimlaneBody=0;fillColor=none;collapsible=0;dropTarget=0;points=[[0,0.5],[1,0.5]];portConstraint=eastwest;top=0;left=0;right=0;bottom=0;" parent="T7HbSHbdoNsgTyJeluN7-175" vertex="1">
          <mxGeometry y="240" width="210" height="30" as="geometry" />
        </mxCell>
        <mxCell id="T7HbSHbdoNsgTyJeluN7-192" style="shape=partialRectangle;connectable=0;fillColor=none;top=0;left=0;bottom=0;right=0;editable=1;overflow=hidden;whiteSpace=wrap;html=1;" parent="T7HbSHbdoNsgTyJeluN7-191" vertex="1">
          <mxGeometry width="30" height="30" as="geometry">
            <mxRectangle width="30" height="30" as="alternateBounds" />
          </mxGeometry>
        </mxCell>
        <mxCell id="T7HbSHbdoNsgTyJeluN7-193" value="encrypted_payment_info" style="shape=partialRectangle;connectable=0;fillColor=none;top=0;left=0;bottom=1;right=0;align=left;spacingLeft=6;overflow=hidden;whiteSpace=wrap;html=1;dashed=1;" parent="T7HbSHbdoNsgTyJeluN7-191" vertex="1">
          <mxGeometry x="30" width="180" height="30" as="geometry">
            <mxRectangle width="180" height="30" as="alternateBounds" />
          </mxGeometry>
        </mxCell>
        <mxCell id="EiR3I19S-EYk1-XTbK6U-69" value="Itinerary Data" style="shape=table;startSize=30;container=1;collapsible=1;childLayout=tableLayout;fixedRows=1;rowLines=0;fontStyle=1;align=center;resizeLast=1;html=1;" parent="1" vertex="1">
          <mxGeometry x="-370" y="680" width="210" height="270" as="geometry">
            <mxRectangle x="-350" y="510" width="120" height="30" as="alternateBounds" />
          </mxGeometry>
        </mxCell>
        <mxCell id="EiR3I19S-EYk1-XTbK6U-70" value="" style="shape=tableRow;horizontal=0;startSize=0;swimlaneHead=0;swimlaneBody=0;fillColor=none;collapsible=0;dropTarget=0;points=[[0,0.5],[1,0.5]];portConstraint=eastwest;top=0;left=0;right=0;bottom=0;" parent="EiR3I19S-EYk1-XTbK6U-69" vertex="1">
          <mxGeometry y="30" width="210" height="30" as="geometry" />
        </mxCell>
        <mxCell id="EiR3I19S-EYk1-XTbK6U-71" value="PK" style="shape=partialRectangle;connectable=0;fillColor=#A9C4EB;top=1;left=1;bottom=1;right=0;fontStyle=1;overflow=hidden;whiteSpace=wrap;html=1;strokeColor=#000000;strokeWidth=2;" parent="EiR3I19S-EYk1-XTbK6U-70" vertex="1">
          <mxGeometry width="30" height="30" as="geometry">
            <mxRectangle width="30" height="30" as="alternateBounds" />
          </mxGeometry>
        </mxCell>
        <mxCell id="EiR3I19S-EYk1-XTbK6U-72" value="itinerary_id" style="shape=partialRectangle;connectable=0;fillColor=#dae8fc;top=1;left=0;bottom=1;right=1;align=left;spacingLeft=6;fontStyle=1;overflow=hidden;whiteSpace=wrap;html=1;strokeColor=#000000;strokeWidth=2;" parent="EiR3I19S-EYk1-XTbK6U-70" vertex="1">
          <mxGeometry x="30" width="180" height="30" as="geometry">
            <mxRectangle width="180" height="30" as="alternateBounds" />
          </mxGeometry>
        </mxCell>
        <mxCell id="EiR3I19S-EYk1-XTbK6U-73" style="shape=tableRow;horizontal=0;startSize=0;swimlaneHead=0;swimlaneBody=0;fillColor=none;collapsible=0;dropTarget=0;points=[[0,0.5],[1,0.5]];portConstraint=eastwest;top=0;left=0;right=0;bottom=0;" parent="EiR3I19S-EYk1-XTbK6U-69" vertex="1">
          <mxGeometry y="60" width="210" height="30" as="geometry" />
        </mxCell>
        <mxCell id="EiR3I19S-EYk1-XTbK6U-74" value="FK" style="shape=partialRectangle;connectable=0;fillColor=#F19C99;top=1;left=1;bottom=1;right=0;fontStyle=1;overflow=hidden;whiteSpace=wrap;html=1;strokeColor=#000000;strokeWidth=2;" parent="EiR3I19S-EYk1-XTbK6U-73" vertex="1">
          <mxGeometry width="30" height="30" as="geometry">
            <mxRectangle width="30" height="30" as="alternateBounds" />
          </mxGeometry>
        </mxCell>
        <mxCell id="EiR3I19S-EYk1-XTbK6U-75" value="users_id" style="shape=partialRectangle;connectable=0;fillColor=#f8cecc;top=1;left=0;bottom=1;right=1;align=left;spacingLeft=6;fontStyle=1;overflow=hidden;whiteSpace=wrap;html=1;strokeColor=#000000;strokeWidth=2;" parent="EiR3I19S-EYk1-XTbK6U-73" vertex="1">
          <mxGeometry x="30" width="180" height="30" as="geometry">
            <mxRectangle width="180" height="30" as="alternateBounds" />
          </mxGeometry>
        </mxCell>
        <mxCell id="EiR3I19S-EYk1-XTbK6U-76" style="shape=tableRow;horizontal=0;startSize=0;swimlaneHead=0;swimlaneBody=0;fillColor=none;collapsible=0;dropTarget=0;points=[[0,0.5],[1,0.5]];portConstraint=eastwest;top=0;left=0;right=0;bottom=1;" parent="EiR3I19S-EYk1-XTbK6U-69" vertex="1">
          <mxGeometry y="90" width="210" height="30" as="geometry" />
        </mxCell>
        <mxCell id="EiR3I19S-EYk1-XTbK6U-77" value="FK" style="shape=partialRectangle;connectable=0;fillColor=#F19C99;top=1;left=1;bottom=1;right=0;fontStyle=1;overflow=hidden;whiteSpace=wrap;html=1;strokeColor=#000000;strokeWidth=2;" parent="EiR3I19S-EYk1-XTbK6U-76" vertex="1">
          <mxGeometry width="30" height="30" as="geometry">
            <mxRectangle width="30" height="30" as="alternateBounds" />
          </mxGeometry>
        </mxCell>
        <mxCell id="EiR3I19S-EYk1-XTbK6U-78" value="destination_id" style="shape=partialRectangle;connectable=0;fillColor=#f8cecc;top=1;left=0;bottom=1;right=1;align=left;spacingLeft=6;fontStyle=1;overflow=hidden;whiteSpace=wrap;html=1;strokeColor=#000000;strokeWidth=2;" parent="EiR3I19S-EYk1-XTbK6U-76" vertex="1">
          <mxGeometry x="30" width="180" height="30" as="geometry">
            <mxRectangle width="180" height="30" as="alternateBounds" />
          </mxGeometry>
        </mxCell>
        <mxCell id="EiR3I19S-EYk1-XTbK6U-79" value="" style="shape=tableRow;horizontal=0;startSize=0;swimlaneHead=0;swimlaneBody=0;fillColor=none;collapsible=0;dropTarget=0;points=[[0,0.5],[1,0.5]];portConstraint=eastwest;top=0;left=0;right=0;bottom=0;" parent="EiR3I19S-EYk1-XTbK6U-69" vertex="1">
          <mxGeometry y="120" width="210" height="30" as="geometry" />
        </mxCell>
        <mxCell id="EiR3I19S-EYk1-XTbK6U-80" value="" style="shape=partialRectangle;connectable=0;fillColor=none;top=0;left=0;bottom=0;right=0;editable=1;overflow=hidden;whiteSpace=wrap;html=1;" parent="EiR3I19S-EYk1-XTbK6U-79" vertex="1">
          <mxGeometry width="30" height="30" as="geometry">
            <mxRectangle width="30" height="30" as="alternateBounds" />
          </mxGeometry>
        </mxCell>
        <mxCell id="EiR3I19S-EYk1-XTbK6U-81" value="trip_name" style="shape=partialRectangle;connectable=0;fillColor=none;top=0;left=0;bottom=1;right=0;align=left;spacingLeft=6;overflow=hidden;whiteSpace=wrap;html=1;flipH=0;dashed=1;" parent="EiR3I19S-EYk1-XTbK6U-79" vertex="1">
          <mxGeometry x="30" width="180" height="30" as="geometry">
            <mxRectangle width="180" height="30" as="alternateBounds" />
          </mxGeometry>
        </mxCell>
        <mxCell id="EiR3I19S-EYk1-XTbK6U-82" value="" style="shape=tableRow;horizontal=0;startSize=0;swimlaneHead=0;swimlaneBody=0;fillColor=none;collapsible=0;dropTarget=0;points=[[0,0.5],[1,0.5]];portConstraint=eastwest;top=0;left=0;right=0;bottom=0;" parent="EiR3I19S-EYk1-XTbK6U-69" vertex="1">
          <mxGeometry y="150" width="210" height="30" as="geometry" />
        </mxCell>
        <mxCell id="EiR3I19S-EYk1-XTbK6U-83" value="" style="shape=partialRectangle;connectable=0;fillColor=none;top=0;left=0;bottom=0;right=0;editable=1;overflow=hidden;whiteSpace=wrap;html=1;" parent="EiR3I19S-EYk1-XTbK6U-82" vertex="1">
          <mxGeometry width="30" height="30" as="geometry">
            <mxRectangle width="30" height="30" as="alternateBounds" />
          </mxGeometry>
        </mxCell>
        <mxCell id="EiR3I19S-EYk1-XTbK6U-84" value="trip_dates" style="shape=partialRectangle;connectable=0;fillColor=none;top=0;left=0;bottom=1;right=0;align=left;spacingLeft=6;overflow=hidden;whiteSpace=wrap;html=1;dashed=1;" parent="EiR3I19S-EYk1-XTbK6U-82" vertex="1">
          <mxGeometry x="30" width="180" height="30" as="geometry">
            <mxRectangle width="180" height="30" as="alternateBounds" />
          </mxGeometry>
        </mxCell>
        <mxCell id="EiR3I19S-EYk1-XTbK6U-85" value="" style="shape=tableRow;horizontal=0;startSize=0;swimlaneHead=0;swimlaneBody=0;fillColor=none;collapsible=0;dropTarget=0;points=[[0,0.5],[1,0.5]];portConstraint=eastwest;top=0;left=0;right=0;bottom=0;" parent="EiR3I19S-EYk1-XTbK6U-69" vertex="1">
          <mxGeometry y="180" width="210" height="30" as="geometry" />
        </mxCell>
        <mxCell id="EiR3I19S-EYk1-XTbK6U-86" value="" style="shape=partialRectangle;connectable=0;fillColor=none;top=0;left=0;bottom=0;right=0;editable=1;overflow=hidden;whiteSpace=wrap;html=1;" parent="EiR3I19S-EYk1-XTbK6U-85" vertex="1">
          <mxGeometry width="30" height="30" as="geometry">
            <mxRectangle width="30" height="30" as="alternateBounds" />
          </mxGeometry>
        </mxCell>
        <mxCell id="EiR3I19S-EYk1-XTbK6U-87" value="activities" style="shape=partialRectangle;connectable=0;fillColor=none;top=0;left=0;bottom=1;right=0;align=left;spacingLeft=6;overflow=hidden;whiteSpace=wrap;html=1;" parent="EiR3I19S-EYk1-XTbK6U-85" vertex="1">
          <mxGeometry x="30" width="180" height="30" as="geometry">
            <mxRectangle width="180" height="30" as="alternateBounds" />
          </mxGeometry>
        </mxCell>
        <mxCell id="EiR3I19S-EYk1-XTbK6U-88" value="" style="shape=tableRow;horizontal=0;startSize=0;swimlaneHead=0;swimlaneBody=0;fillColor=none;collapsible=0;dropTarget=0;points=[[0,0.5],[1,0.5]];portConstraint=eastwest;top=0;left=0;right=0;bottom=0;" parent="EiR3I19S-EYk1-XTbK6U-69" vertex="1">
          <mxGeometry y="210" width="210" height="30" as="geometry" />
        </mxCell>
        <mxCell id="EiR3I19S-EYk1-XTbK6U-89" value="" style="shape=partialRectangle;connectable=0;fillColor=none;top=0;left=0;bottom=0;right=0;editable=1;overflow=hidden;whiteSpace=wrap;html=1;" parent="EiR3I19S-EYk1-XTbK6U-88" vertex="1">
          <mxGeometry width="30" height="30" as="geometry">
            <mxRectangle width="30" height="30" as="alternateBounds" />
          </mxGeometry>
        </mxCell>
        <mxCell id="EiR3I19S-EYk1-XTbK6U-90" value="total_budget" style="shape=partialRectangle;connectable=0;fillColor=none;top=0;left=0;bottom=1;right=0;align=left;spacingLeft=6;overflow=hidden;whiteSpace=wrap;html=1;flipH=0;dashed=1;" parent="EiR3I19S-EYk1-XTbK6U-88" vertex="1">
          <mxGeometry x="30" width="180" height="30" as="geometry">
            <mxRectangle width="180" height="30" as="alternateBounds" />
          </mxGeometry>
        </mxCell>
        <mxCell id="EiR3I19S-EYk1-XTbK6U-91" style="shape=tableRow;horizontal=0;startSize=0;swimlaneHead=0;swimlaneBody=0;fillColor=none;collapsible=0;dropTarget=0;points=[[0,0.5],[1,0.5]];portConstraint=eastwest;top=0;left=0;right=0;bottom=0;" parent="EiR3I19S-EYk1-XTbK6U-69" vertex="1">
          <mxGeometry y="240" width="210" height="30" as="geometry" />
        </mxCell>
        <mxCell id="EiR3I19S-EYk1-XTbK6U-92" style="shape=partialRectangle;connectable=0;fillColor=none;top=0;left=0;bottom=0;right=0;editable=1;overflow=hidden;whiteSpace=wrap;html=1;" parent="EiR3I19S-EYk1-XTbK6U-91" vertex="1">
          <mxGeometry width="30" height="30" as="geometry">
            <mxRectangle width="30" height="30" as="alternateBounds" />
          </mxGeometry>
        </mxCell>
        <mxCell id="EiR3I19S-EYk1-XTbK6U-93" value="estimated_cost" style="shape=partialRectangle;connectable=0;fillColor=none;top=0;left=0;bottom=1;right=0;align=left;spacingLeft=6;overflow=hidden;whiteSpace=wrap;html=1;dashed=1;" parent="EiR3I19S-EYk1-XTbK6U-91" vertex="1">
          <mxGeometry x="30" width="180" height="30" as="geometry">
            <mxRectangle width="180" height="30" as="alternateBounds" />
          </mxGeometry>
        </mxCell>
        <mxCell id="EiR3I19S-EYk1-XTbK6U-98" style="edgeStyle=orthogonalEdgeStyle;rounded=0;orthogonalLoop=1;jettySize=auto;html=1;entryX=0;entryY=0.5;entryDx=0;entryDy=0;strokeWidth=2;startArrow=ERmany;startFill=0;" parent="1" source="T7HbSHbdoNsgTyJeluN7-218" target="T7HbSHbdoNsgTyJeluN7-115" edge="1">
          <mxGeometry relative="1" as="geometry">
            <Array as="points">
              <mxPoint x="-720" y="755" />
              <mxPoint x="-720" y="265" />
            </Array>
          </mxGeometry>
        </mxCell>
        <object label="&#xa;- Linked to Itinerary &#xa;(a user can create many itineraries)&#xa;&#xa;- Linked to Payment Data &#xa;(a user can make many payments)" placeholders="1" id="EiR3I19S-EYk1-XTbK6U-107">
          <mxCell style="text;align=left;verticalAlign=middle;resizable=1;points=[];autosize=0;strokeColor=none;fillColor=none;flipH=0;rotation=0;horizontal=1;noLabel=0;fontStyle=1;imageAspect=1;imageWidth=8;resizeWidth=0;resizeHeight=0;movableLabel=1;collapsible=1;editable=1;movable=1;rotatable=1;deletable=1;locked=0;connectable=1;metaEdit=1;backgroundOutline=1;autosizeGrid=1;labelBorderColor=none;textShadow=0;snapToPoint=1;portConstraintRotation=0;container=0;fixDash=0;dropTarget=0;recursiveResize=1;expand=1;fixedWidth=0;enumerate=0;comic=0;overflow=block;strokeOpacity=100;perimeter=centerPerimeter;whiteSpace=wrap;" parent="1" vertex="1" collapsed="1">
            <mxGeometry x="-870" y="140" width="150" height="150" relative="1" as="geometry">
              <mxRectangle x="-870" y="140" width="250" height="160" as="alternateBounds" />
              <mxPoint x="-650" y="60" as="offset" />
            </mxGeometry>
          </mxCell>
        </object>
        <mxCell id="XZTKF5hNfjWOzn65VdLr-5" style="edgeStyle=orthogonalEdgeStyle;rounded=0;orthogonalLoop=1;jettySize=auto;html=1;entryX=1;entryY=0.5;entryDx=0;entryDy=0;strokeWidth=2;startArrow=ERmany;startFill=0;endArrow=classicThin;endFill=1;" parent="1" source="EiR3I19S-EYk1-XTbK6U-76" target="T7HbSHbdoNsgTyJeluN7-85" edge="1">
          <mxGeometry relative="1" as="geometry">
            <Array as="points">
              <mxPoint x="-110" y="785" />
              <mxPoint x="-110" y="289" />
            </Array>
          </mxGeometry>
        </mxCell>
        <mxCell id="XZTKF5hNfjWOzn65VdLr-6" style="edgeStyle=orthogonalEdgeStyle;rounded=0;orthogonalLoop=1;jettySize=auto;html=1;entryX=1;entryY=0.5;entryDx=0;entryDy=0;strokeWidth=2;endArrow=ERmany;endFill=0;startArrow=halfCircle;startFill=0;" parent="1" source="EiR3I19S-EYk1-XTbK6U-73" target="T7HbSHbdoNsgTyJeluN7-115" edge="1">
          <mxGeometry relative="1" as="geometry" />
        </mxCell>
        <mxCell id="XZTKF5hNfjWOzn65VdLr-7" style="edgeStyle=orthogonalEdgeStyle;rounded=0;orthogonalLoop=1;jettySize=auto;html=1;entryX=0;entryY=0.5;entryDx=0;entryDy=0;strokeWidth=2;startArrow=halfCircle;startFill=0;endArrow=ERmany;endFill=0;" parent="1" source="T7HbSHbdoNsgTyJeluN7-215" target="T7HbSHbdoNsgTyJeluN7-85" edge="1">
          <mxGeometry relative="1" as="geometry">
            <Array as="points">
              <mxPoint x="-410" y="785" />
              <mxPoint x="-410" y="290" />
            </Array>
          </mxGeometry>
        </mxCell>
        <mxCell id="XZTKF5hNfjWOzn65VdLr-8" style="edgeStyle=orthogonalEdgeStyle;rounded=0;orthogonalLoop=1;jettySize=auto;html=1;entryX=0.562;entryY=1.13;entryDx=0;entryDy=0;entryPerimeter=0;exitX=0.498;exitY=1.046;exitDx=0;exitDy=0;exitPerimeter=0;endArrow=block;endFill=0;startArrow=block;startFill=0;dashed=1;strokeWidth=2;" parent="1" source="T7HbSHbdoNsgTyJeluN7-154" edge="1">
          <mxGeometry relative="1" as="geometry">
            <Array as="points">
              <mxPoint x="-575" y="606" />
              <mxPoint x="-252" y="606" />
            </Array>
            <mxPoint x="-575" y="576.1" as="sourcePoint" />
            <mxPoint x="-251.98000000000002" y="545" as="targetPoint" />
          </mxGeometry>
        </mxCell>
        <object label="&#xa;- Linked to Itinerary &#xa;&#xa;(a destination can be included in many itineraries)" placeholders="1" id="aLvOKMKY9XnCN4stcSGR-2">
          <mxCell style="text;align=left;verticalAlign=middle;resizable=1;points=[];autosize=0;strokeColor=none;fillColor=none;flipH=0;rotation=0;horizontal=1;noLabel=0;fontStyle=1;imageAspect=1;imageWidth=8;resizeWidth=0;resizeHeight=0;movableLabel=1;collapsible=1;editable=1;movable=1;rotatable=1;deletable=1;locked=0;connectable=1;metaEdit=1;backgroundOutline=1;autosizeGrid=1;labelBorderColor=none;textShadow=0;snapToPoint=1;portConstraintRotation=0;container=0;fixDash=0;dropTarget=0;recursiveResize=1;expand=1;fixedWidth=0;enumerate=0;comic=0;overflow=block;strokeOpacity=100;perimeter=centerPerimeter;whiteSpace=wrap;" vertex="1" collapsed="1" parent="1">
            <mxGeometry x="-870" y="140" width="140" height="130" relative="1" as="geometry">
              <mxRectangle x="-870" y="140" width="250" height="160" as="alternateBounds" />
              <mxPoint x="-150" y="790" as="offset" />
            </mxGeometry>
          </mxCell>
        </object>
        <object label="&#xa;- Linked to Users&#xa;&#xa;(each user can make multiple payments)" placeholders="1" id="aLvOKMKY9XnCN4stcSGR-3">
          <mxCell style="text;align=left;verticalAlign=middle;resizable=1;points=[];autosize=0;strokeColor=none;fillColor=default;flipH=0;rotation=0;horizontal=1;noLabel=0;fontStyle=1;imageAspect=1;imageWidth=8;resizeWidth=0;resizeHeight=0;movableLabel=1;collapsible=1;editable=1;movable=1;rotatable=1;deletable=1;locked=0;connectable=1;metaEdit=1;backgroundOutline=1;autosizeGrid=1;labelBorderColor=none;textShadow=0;snapToPoint=1;portConstraintRotation=0;container=0;fixDash=0;dropTarget=0;recursiveResize=1;expand=1;fixedWidth=0;enumerate=0;comic=0;overflow=block;strokeOpacity=100;perimeter=centerPerimeter;whiteSpace=wrap;" vertex="1" collapsed="1" parent="1">
            <mxGeometry x="-870" y="140" width="130" height="90" relative="1" as="geometry">
              <mxRectangle x="-870" y="140" width="250" height="160" as="alternateBounds" />
              <mxPoint x="-820" y="810" as="offset" />
            </mxGeometry>
          </mxCell>
        </object>
        <object label="&#xa;- Linked to Users &#xa;(each travel plan belongs to one user)&#xa;&#xa;- Linked to Destination&#xa;(each travel plan can include multiple destinations)." placeholders="1" id="aLvOKMKY9XnCN4stcSGR-4">
          <mxCell style="text;align=left;verticalAlign=middle;resizable=1;points=[];autosize=0;strokeColor=none;fillColor=none;flipH=0;rotation=0;horizontal=1;noLabel=0;fontStyle=1;imageAspect=1;imageWidth=8;resizeWidth=0;resizeHeight=0;movableLabel=1;collapsible=1;editable=1;movable=1;rotatable=1;deletable=1;locked=0;connectable=1;metaEdit=1;backgroundOutline=1;autosizeGrid=1;labelBorderColor=none;textShadow=0;snapToPoint=1;portConstraintRotation=0;container=0;fixDash=0;dropTarget=0;recursiveResize=1;expand=1;fixedWidth=0;enumerate=0;comic=0;overflow=block;strokeOpacity=100;perimeter=centerPerimeter;whiteSpace=wrap;" vertex="1" collapsed="1" parent="1">
            <mxGeometry x="-870" y="140" width="150" height="150" relative="1" as="geometry">
              <mxRectangle x="-870" y="140" width="250" height="160" as="alternateBounds" />
              <mxPoint x="-320" y="70" as="offset" />
            </mxGeometry>
          </mxCell>
        </object>
      </root>
    </mxGraphModel>
  </diagram>
</mxfile>
